<svg xmlns="http://www.w3.org/2000/svg" version="1.2" preserveAspectRatio="none" viewBox="0 0 69.99 89.17" class="ng-element" data-id="bfc4b7a4016045139b74253513041a2f"><defs><style>
      .\39 5197276-edbc-4865-b5b7-8e930c56fccf {
        fill: #eae4da;
      }
    </style></defs><g id="ff74315b-c40b-4abf-bb77-6c9562364f83_1578488031711"><g id="f57b8b87-a3fc-45c7-859c-9b34fc7ed6f0_1578488031711"><g><path d="M27.25.24V.16s0,0,0,0,.18,0,.15,0,0,0,0,0l0,.19,0,.39-.06.79-.1,1.58c-.08,1.06-.16,2.11-.32,3.17a3.53,3.53,0,0,1-.52,1.54,8.63,8.63,0,0,1-1,1.25c-.72.78-1.51,1.5-2.28,2.22-1.56,1.41-2.95,3-4.38,4.57S15.87,19,14.51,20.66s-2.66,3.27-3.9,5a31.65,31.65,0,0,0-3.26,5.25,24.32,24.32,0,0,0-1.59,5.91,35.47,35.47,0,0,0-.47,6.15v.36l-.28.3a11.3,11.3,0,0,0-1.31,1.9,14.18,14.18,0,0,0-1,2.21,19.41,19.41,0,0,0-1,4.8,25.86,25.86,0,0,0,.16,5c.1.83.27,1.65.4,2.48l.59,2.45,0,.18,0,.17A22,22,0,0,0,4,73.82a20.36,20.36,0,0,0,6.55,9.11,14.47,14.47,0,0,0,10.74,2.71A13.66,13.66,0,0,0,24.05,85a5.28,5.28,0,0,0,1.22-.57,15.09,15.09,0,0,1,4-2,4.87,4.87,0,0,1,3.1-.13l.18.07,0,.23a13.72,13.72,0,0,0,.95,3.22,3.92,3.92,0,0,0,2,2.25l-.63.46a3.78,3.78,0,0,1,.07-.61,2.35,2.35,0,0,1,.2-.6,1.69,1.69,0,0,1,.45-.57,1.5,1.5,0,0,1,.73-.29l-.36.81c-.57-.74-1.1-1.49-1.62-2.27-.25-.39-.5-.78-.74-1.2A4.79,4.79,0,0,1,33,82.3l-.36-1.89L34,81.85a13.8,13.8,0,0,0,6.4,3.79,10.84,10.84,0,0,0,3.67.28,12.76,12.76,0,0,0,3.59-1,26.52,26.52,0,0,0,6.5-4,39.2,39.2,0,0,0,5.49-5.44,36.19,36.19,0,0,0,7.15-13.53,31.35,31.35,0,0,0,.24-15.19,48,48,0,0,0-6-14.22,59.5,59.5,0,0,0-9.87-12.06c-3.79-3.6-8.34-6.35-12.67-9.39-2.17-1.51-4.37-3-6.44-4.66a24.78,24.78,0,0,1-2.93-2.69A7.08,7.08,0,0,1,27.25.24Zm.2,0a6.82,6.82,0,0,0,1.87,3.36A24.43,24.43,0,0,0,32.25,6.2c2.11,1.58,4.31,3,6.56,4.43l6.73,4.19A56,56,0,0,1,52,19.51a55,55,0,0,1,10.6,12,46,46,0,0,1,6.46,14.77,33.27,33.27,0,0,1-.21,16.2,38.21,38.21,0,0,1-7.73,14.2,40.31,40.31,0,0,1-5.83,5.63,27.9,27.9,0,0,1-7,4.15,14.3,14.3,0,0,1-4.06,1A11.76,11.76,0,0,1,40.07,87a15.13,15.13,0,0,1-6.93-4.42l1-.45a3.9,3.9,0,0,0,.42,1.06c.2.39.42.77.66,1.16.47.76,1,1.51,1.5,2.24l.51.71-.87.1c-.17,0-.27.08-.39.3a1.85,1.85,0,0,0-.19.76l0,.67-.6-.22a3.46,3.46,0,0,1-1.56-1.21,6.78,6.78,0,0,1-.91-1.61,14.34,14.34,0,0,1-.9-3.46L32,83a4.08,4.08,0,0,0-2.59.12,13.74,13.74,0,0,0-2.58,1.13,12.12,12.12,0,0,0-1.2.75,5.68,5.68,0,0,1-1.4.65,13.94,13.94,0,0,1-2.9.64,15.64,15.64,0,0,1-11.25-2.73A19.44,19.44,0,0,1,6,79.33,24.37,24.37,0,0,1,3,74.2,23.07,23.07,0,0,1,1.48,62.46l0,.35L.79,60.28c-.16-.86-.37-1.72-.5-2.59a25.36,25.36,0,0,1-.24-5.3,20.73,20.73,0,0,1,1-5.27,15.67,15.67,0,0,1,1.09-2.49,10.66,10.66,0,0,1,1.62-2.31L3.5,43A31.83,31.83,0,0,1,6,30.23a32.63,32.63,0,0,1,3.67-5.35c1.34-1.66,2.74-3.27,4.17-4.83,2.88-3.12,5.8-6.18,9-9,.8-.7,1.6-1.39,2.33-2.14a4.3,4.3,0,0,0,1.51-2.62c.16-1,.25-2.09.33-3.15l.12-1.58.07-.79,0-.4a.69.69,0,0,1,0-.2.13.13,0,0,1,0-.08s.12-.13.19,0a.39.39,0,0,1,0,.06A.52.52,0,0,1,27.45.21Z" class="95197276-edbc-4865-b5b7-8e930c56fccf_1578488031711" vector-effect="non-scaling-stroke" style="fill: rgba(70, 172, 72, 0.03);"></path><path d="M32.09,82.63c-.53-3.42-.9-6.85-1.19-10.27s-.52-6.86-.58-10.31.08-6.89,0-10.32-.42-6.87-.78-10.29-.73-6.85-1-10.28S28,24.3,27.79,20.87C27.44,14,27.28,7.13,27.25.23l.2,0a184.85,184.85,0,0,1,2.47,20.53c.24,3.43.36,6.87.49,10.31s.19,6.88.19,10.33.08,6.88.33,10.31S31.66,58.54,32,62s.41,6.87.47,10.31,0,6.88-.16,10.34Z" class="95197276-edbc-4865-b5b7-8e930c56fccf_1578488031711" vector-effect="non-scaling-stroke" style="fill: rgba(70, 172, 72, 0.03);"></path><path d="M39.62,11.48a20.25,20.25,0,0,1-1.8,4.12,18.08,18.08,0,0,1-2.57,3.63,35.87,35.87,0,0,0-3,3.29c-.91,1.17-1.69,2.45-2.53,3.69l-.33.5-.66-.41a22.72,22.72,0,0,1-3-2.37A20.59,20.59,0,0,1,23,21.12a19.94,19.94,0,0,1-2-3.3,13.36,13.36,0,0,1-1.18-3.69l.19-.07c.77,1,1.48,2,2.26,3s1.57,1.87,2.38,2.77l2.43,2.72c.81.91,1.7,1.77,2.52,2.65l-1,.09a23.51,23.51,0,0,0,3.13-3.1A20.76,20.76,0,0,0,34,18.35a24.21,24.21,0,0,1,2.46-3.64,28.09,28.09,0,0,1,3-3.33Z" class="95197276-edbc-4865-b5b7-8e930c56fccf_1578488031711" vector-effect="non-scaling-stroke" style="fill: rgba(70, 172, 72, 0.03);"></path><path d="M14,20.58c1.42,1.36,2.72,2.78,4,4.2s2.59,2.85,3.84,4.31,2.38,3,3.68,4.45A16.84,16.84,0,0,0,30,37.09l-.44,0c1.68-1.56,3.24-3.26,4.88-4.85s3.24-3.24,4.85-4.84,3.22-3.21,4.76-4.86c.76-.84,1.51-1.68,2.2-2.57A11.06,11.06,0,0,0,48,17.12l.2,0a8.89,8.89,0,0,1-1,3.42,22.64,22.64,0,0,1-1.84,3,41.37,41.37,0,0,1-4.53,5.34c-1.64,1.65-3.41,3.14-5.18,4.64S32,36.37,30.08,37.73l-.24.17-.2-.14C28,36.63,26.53,35.36,25,34.15a41.85,41.85,0,0,1-4.43-3.88,44.62,44.62,0,0,1-3.68-4.55,36.54,36.54,0,0,1-3-5Z" class="95197276-edbc-4865-b5b7-8e930c56fccf_1578488031711" vector-effect="non-scaling-stroke" style="fill: rgba(70, 172, 72, 0.03);"></path><path d="M8.71,27.23c1.69,2,3.3,4.1,4.95,6.13s3.3,4,5,6a57.21,57.21,0,0,0,5.21,5.8,13.5,13.5,0,0,0,6.71,3.59h-.19a46.5,46.5,0,0,0,7.82-4.3,57.05,57.05,0,0,0,7-5.44,66.79,66.79,0,0,0,6.3-6.29c1-1.1,1.94-2.27,2.88-3.44s1.77-2.43,2.72-3.64l.17.1a41.16,41.16,0,0,1-4.49,8,41.09,41.09,0,0,1-6.17,6.88c-.59.5-1.17,1-1.76,1.5L43,43.53c-1.27.87-2.56,1.72-3.9,2.49a38.11,38.11,0,0,1-8.51,3.56l-.12,0-.08,0a21.11,21.11,0,0,1-7-3.8,37.58,37.58,0,0,1-3.14-2.48,35.93,35.93,0,0,1-2.89-2.76,53.82,53.82,0,0,1-4.88-6.3,50,50,0,0,1-3.9-6.92Z" class="95197276-edbc-4865-b5b7-8e930c56fccf_1578488031711" vector-effect="non-scaling-stroke" style="fill: rgba(70, 172, 72, 0.03);"></path><path d="M4.47,42.88c4.18,3.26,8.28,6.5,12.6,9.41a68.49,68.49,0,0,0,6.58,4.2A19.4,19.4,0,0,0,31,58.84h-.15C34,57.55,37,55.89,40,54.3s5.92-3.24,8.76-5,5.71-3.54,8.36-5.59a51.21,51.21,0,0,0,7.47-6.75l.17.11A32.92,32.92,0,0,1,58.15,45l-2,1.69c-.68.52-1.36,1-2,1.56-1.4,1-2.82,2-4.3,2.86a90.68,90.68,0,0,1-9.13,4.73c-3.13,1.39-6.35,2.53-9.58,3.67l-.08,0H31a38.1,38.1,0,0,1-7.72-2.14,37.3,37.3,0,0,1-7.17-3.6,51.82,51.82,0,0,1-6.3-4.93A45.48,45.48,0,0,1,4.33,43Z" class="95197276-edbc-4865-b5b7-8e930c56fccf_1578488031711" vector-effect="non-scaling-stroke" style="fill: rgba(70, 172, 72, 0.03);"></path><path d="M2.25,62.52c5.27,2.47,10.51,4.79,15.9,6.71.66.26,1.33.52,2,.74s1.35.49,2,.68,1.38.42,2.08.58l2.12.41A28.51,28.51,0,0,0,35,71.31l8.56-1.42c2.84-.48,5.66-1.06,8.46-1.64s5.6-1.24,8.31-2.09a28.82,28.82,0,0,0,4-1.53,11.51,11.51,0,0,0,3.47-2.41l.16.12a9.84,9.84,0,0,1-3.12,3.17,24.74,24.74,0,0,1-3.92,2.12,49.32,49.32,0,0,1-8.41,2.7,85.22,85.22,0,0,1-8.65,1.43c-2.9.37-5.81.56-8.73.64a57.52,57.52,0,0,1-17.46-1.59,42.4,42.4,0,0,1-8.14-3.32,43,43,0,0,1-7.35-4.8Z" class="95197276-edbc-4865-b5b7-8e930c56fccf_1578488031711" vector-effect="non-scaling-stroke" style="fill: rgba(70, 172, 72, 0.03);"></path><path d="M.9,51.39c2.37,1.67,4.76,3.26,7.16,4.83s4.83,3.05,7.31,4.44A55.57,55.57,0,0,0,23,64.52a20.17,20.17,0,0,0,8.36,1.36h0c3.34-.62,6.64-1.55,9.92-2.4,1.64-.43,3.27-.9,4.89-1.39s3.23-1,4.82-1.58a86.42,86.42,0,0,0,9.38-3.74,38.42,38.42,0,0,0,8.55-5.38l.14.13a27.91,27.91,0,0,1-7.91,6.7,50.4,50.4,0,0,1-9.46,4.31,85.24,85.24,0,0,1-10,2.67,98,98,0,0,1-10.23,1.45h0a36.55,36.55,0,0,1-8.65-1.36l-2.12-.59L18.55,64a34.21,34.21,0,0,1-4-1.76,51,51,0,0,1-7.34-4.77,48.52,48.52,0,0,1-6.42-5.9Z" class="95197276-edbc-4865-b5b7-8e930c56fccf_1578488031711" vector-effect="non-scaling-stroke" style="fill: rgba(70, 172, 72, 0.03);"></path><path d="M4.25,75.53c2.38.38,4.69.86,7,1.3s4.62.83,6.91,1.32a22,22,0,0,0,7,.62,11.56,11.56,0,0,0,6.31-2.48l.29-.24.52.21A33.71,33.71,0,0,0,37.8,77.9c1.92.4,3.86.74,5.8,1.09l2.93.5,2.94.49c2,.31,3.94.64,5.92,1v.2c-1,.11-2,.16-3,.22s-2,0-3,0A55.74,55.74,0,0,1,43.29,81a35.93,35.93,0,0,1-6-1.22,22.56,22.56,0,0,1-5.8-2.3l.81,0a16.54,16.54,0,0,1-7.1,1.89,69.77,69.77,0,0,1-7.24.27,29.55,29.55,0,0,1-7.11-1.26,33,33,0,0,1-6.69-2.67Z" class="95197276-edbc-4865-b5b7-8e930c56fccf_1578488031711" vector-effect="non-scaling-stroke" style="fill: rgba(70, 172, 72, 0.03);"></path></g></g></g></svg>