<svg xmlns="http://www.w3.org/2000/svg" version="1.2" preserveAspectRatio="none" viewBox="0 0 131.82 101.59" class="ng-element" data-id="9d6830fa06de4acfb60ead6e341f133b"><g id="d6556f2d-a40c-4072-afd0-527f470b4626_1578488031646"><g id="2b82ff6a-538e-4396-be10-0f2208cc4c6f_1578488031646"><g><path fill="#f58120" d="M131.82,83.75c-7.19-6.09-14.41-12.14-21.84-17.9-3.7-2.91-7.44-5.76-11.26-8.48S91,52,86.8,50.25a8.83,8.83,0,0,0-1.54-.49,4.08,4.08,0,0,0-1.49-.08,14.37,14.37,0,0,0-3.26.6,39.25,39.25,0,0,0-6.37,2.56c-4.2,2-8.18,4.52-12.7,6.36a17.35,17.35,0,0,1-3.63,1A9.68,9.68,0,0,1,53.89,60a35.55,35.55,0,0,1-6.79-2.68c-4.28-2.08-8.34-4.58-12.5-6.46a11.14,11.14,0,0,0-3-1c-.27-.09-.28.12.19-.27a.56.56,0,0,0,.14-.34s0,0,0,.13a6.53,6.53,0,0,0,.6,1.3,40.13,40.13,0,0,0,4.14,5.42,75.91,75.91,0,0,0,10.1,9.54,33,33,0,0,0,5.74,3.67,9.62,9.62,0,0,0,3,.91,19.65,19.65,0,0,0,3.3-.16c4.51-.61,8.91-2.31,13.54-3.48a37.8,37.8,0,0,1,7.13-1.2l1.83,0a6.72,6.72,0,0,1,2,.45,14.35,14.35,0,0,1,3.2,1.91,61.59,61.59,0,0,1,9.82,10.36,230.26,230.26,0,0,1,15.77,23.48A261.2,261.2,0,0,0,95.47,78.86,61.14,61.14,0,0,0,85.66,69a13.34,13.34,0,0,0-2.87-1.64,5.22,5.22,0,0,0-1.44-.3l-1.7.07a36.19,36.19,0,0,0-6.76,1.31c-4.46,1.25-8.88,3.07-13.74,3.75a22.75,22.75,0,0,1-3.74.21,11.46,11.46,0,0,1-3.74-1.09,34.09,34.09,0,0,1-6.17-3.86A79.5,79.5,0,0,1,35,57.68a40.89,40.89,0,0,1-4.45-5.77,7.8,7.8,0,0,1-.86-1.9,4,4,0,0,1-.11-.74A1.87,1.87,0,0,1,30,48.11a2,2,0,0,1,.61-.47,2.83,2.83,0,0,1,.52-.13,1.83,1.83,0,0,1,.69,0,12.13,12.13,0,0,1,3.76,1.13c4.41,2,8.38,4.54,12.55,6.6a34.1,34.1,0,0,0,6.31,2.56,7.48,7.48,0,0,0,3.06.24,15.87,15.87,0,0,0,3.15-.89c4.23-1.69,8.3-4.16,12.59-6.2A38.7,38.7,0,0,1,80,48.34a15.62,15.62,0,0,1,3.69-.59,6.05,6.05,0,0,1,2,.16,11.33,11.33,0,0,1,1.81.62c4.5,2,8.28,4.84,12.12,7.61s7.48,5.77,11.11,8.79C117.92,71,125,77.26,131.82,83.75Z" vector-effect="non-scaling-stroke"></path><path fill="#f58120" d="M0,39.3a31.92,31.92,0,0,0,13.6,7.78,30.56,30.56,0,0,0,7.77,1.1l7.94-.11,31.85-.34c10.62-.14,21.24-.1,31.85-.17l7.93-.05a29.71,29.71,0,0,0,7.55-1.23,30.43,30.43,0,0,0,13-7.83l.86,2-30.58-.11-30.59-.18C40.78,40,20.39,39.79,0,39.3Zm0,0c20.39-.49,40.78-.73,61.16-.92l30.59-.18,30.58-.11h2.87l-2,2.06a32.4,32.4,0,0,1-14,8.37A32,32,0,0,1,101,49.78H93c-10.61-.07-21.23,0-31.85-.17l-31.85-.34-8-.16a31.73,31.73,0,0,1-7.92-1.4A31.06,31.06,0,0,1,0,39.3Z" vector-effect="non-scaling-stroke"></path><g><g><path fill="#f58120" d="M87.93,22.81A16.81,16.81,0,0,0,93.23,34a15.84,15.84,0,0,0,22-.37,15.62,15.62,0,0,0,4.51-10.82L120.89,24c-5.36,0-10.71-.2-16.18-.43S93.69,23.07,87.93,22.81Zm0,0c5.23-.26,10.64-.54,16.18-.72s11.15-.38,16.78-.44H122v1.17a17.37,17.37,0,0,1-17.64,17.53,17.24,17.24,0,0,1-12.13-5.4A16.25,16.25,0,0,1,87.93,22.81Z" vector-effect="non-scaling-stroke"></path><path fill="#f58120" d="M110.3,14.5a7.38,7.38,0,0,1-.41,2.51,8.05,8.05,0,0,1-1.24,2.26,11.64,11.64,0,0,1-4.1,3.22l-.12.05-.18-.06a11.4,11.4,0,0,1-5.38-3.83,7.32,7.32,0,0,1-1.37-3.28,11.88,11.88,0,0,1,.07-3.43A17.81,17.81,0,0,1,99.8,5.71a22.41,22.41,0,0,1,4-5.11l.64-.6.48.6a25.76,25.76,0,0,1,3.8,6.61A20,20,0,0,1,110.3,14.5Zm0,0a15,15,0,0,0-2-7.08,24.61,24.61,0,0,0-4.48-5.74H105a30.84,30.84,0,0,0-3.16,5.11,21.72,21.72,0,0,0-1.93,5.54,13.77,13.77,0,0,0-.25,2.81,6.55,6.55,0,0,0,.73,2.57,10.15,10.15,0,0,0,4.21,4h-.3a9.31,9.31,0,0,0,4.2-2.55A6.14,6.14,0,0,0,109.82,17,7.29,7.29,0,0,0,110.3,14.5Z" vector-effect="non-scaling-stroke"></path></g><g><path fill="#f58120" d="M44.68,22.81A16.86,16.86,0,0,0,50,34a15.86,15.86,0,0,0,22-.37,15.66,15.66,0,0,0,4.51-10.82L77.65,24c-5.36,0-10.72-.2-16.19-.43S50.44,23.07,44.68,22.81Zm0,0c5.23-.26,10.64-.54,16.18-.72s11.15-.38,16.79-.44H78.8v1.17a17.49,17.49,0,0,1-5.15,12.5A17.13,17.13,0,0,1,49,34.94,16.26,16.26,0,0,1,44.68,22.81Z" vector-effect="non-scaling-stroke"></path><path fill="#f58120" d="M67.06,14.5A7.39,7.39,0,0,1,66.64,17a8.28,8.28,0,0,1-1.23,2.26,11.59,11.59,0,0,1-4.11,3.22l-.12.05L61,22.48a11.45,11.45,0,0,1-5.38-3.83,7.2,7.2,0,0,1-1.36-3.28,11.55,11.55,0,0,1,.06-3.43,17.81,17.81,0,0,1,2.23-6.23A22.45,22.45,0,0,1,60.61.6l.63-.6.48.6a25.76,25.76,0,0,1,3.8,6.61A20.26,20.26,0,0,1,67.06,14.5Zm0,0a15.13,15.13,0,0,0-2-7.08,24.57,24.57,0,0,0-4.47-5.74h1.11a30.13,30.13,0,0,0-3.15,5.11,21.35,21.35,0,0,0-1.93,5.54,13.77,13.77,0,0,0-.25,2.81,6.71,6.71,0,0,0,.72,2.57,10.21,10.21,0,0,0,4.21,4H61a9.4,9.4,0,0,0,4.21-2.55A6.26,6.26,0,0,0,66.57,17,7.55,7.55,0,0,0,67.06,14.5Z" vector-effect="non-scaling-stroke"></path></g><g><path fill="#f58120" d="M1.44,22.81A16.81,16.81,0,0,0,6.74,34a15.84,15.84,0,0,0,22-.37,15.62,15.62,0,0,0,4.51-10.82L34.4,24c-5.36,0-10.71-.2-16.18-.43S7.2,23.07,1.44,22.81Zm0,0c5.22-.26,10.64-.54,16.18-.72s11.15-.38,16.78-.44h1.15v1.17a17.45,17.45,0,0,1-5.15,12.5,17.13,17.13,0,0,1-24.62-.37A16.25,16.25,0,0,1,1.44,22.81Z" vector-effect="non-scaling-stroke"></path><path fill="#f58120" d="M23.81,14.5A7.38,7.38,0,0,1,23.4,17a8.05,8.05,0,0,1-1.24,2.26,11.64,11.64,0,0,1-4.1,3.22l-.12.05-.18-.06a11.4,11.4,0,0,1-5.38-3.83A7.32,7.32,0,0,1,11,15.37a11.88,11.88,0,0,1,.07-3.43A17.79,17.79,0,0,1,13.3,5.71,22.73,22.73,0,0,1,17.36.6L18,0l.48.6a25.43,25.43,0,0,1,3.79,6.61A19.84,19.84,0,0,1,23.81,14.5Zm0,0a15.12,15.12,0,0,0-2-7.08,24.61,24.61,0,0,0-4.48-5.74h1.12a30.84,30.84,0,0,0-3.16,5.11,21.35,21.35,0,0,0-1.93,5.54,13.77,13.77,0,0,0-.25,2.81,6.55,6.55,0,0,0,.73,2.57,10.09,10.09,0,0,0,4.21,4h-.3A9.37,9.37,0,0,0,22,19.11,6.29,6.29,0,0,0,23.33,17,7.29,7.29,0,0,0,23.81,14.5Z" vector-effect="non-scaling-stroke"></path></g></g><path fill="#f58120" d="M108.91,64.23A8,8,0,0,1,111,62.89a3,3,0,0,1,1.36-.29,1.42,1.42,0,0,1,1.25,1.17,10.21,10.21,0,0,1-1.06,5.08,26.88,26.88,0,0,1-5.6,8.23,24.1,24.1,0,0,1-8.38,5.42,19.5,19.5,0,0,1-2.39.75c-.41.09-.82.18-1.25.24a6.83,6.83,0,0,1-.69.06H94a1.05,1.05,0,0,1-.57-.23,1.24,1.24,0,0,1-.23-.44,1,1,0,0,1,0-.29,7,7,0,0,1,1.09-2.4,18.43,18.43,0,0,1,1.39-2l-.81,2.28a6.65,6.65,0,0,0-.48,2.12h0a.21.21,0,0,0-.1-.17.29.29,0,0,0-.28-.13l.1,0a4.67,4.67,0,0,0,.5-.13c.35-.11.71-.25,1.07-.39.71-.3,1.42-.61,2.1-1a29.49,29.49,0,0,0,7.43-5.4A35,35,0,0,0,110.84,68,11.68,11.68,0,0,0,112.43,64c0-.27,0-.35-.25-.46a2.14,2.14,0,0,0-1,0A12.37,12.37,0,0,0,108.91,64.23Z" vector-effect="non-scaling-stroke"></path><path fill="#f58120" d="M119.48,73a3.52,3.52,0,0,1,2.15-1,1.37,1.37,0,0,1,1.2.82,3,3,0,0,1,.24,1.35,13.66,13.66,0,0,1-1.26,4.53,26.3,26.3,0,0,1-5.18,7.62,23.41,23.41,0,0,1-7.64,5.2,18.35,18.35,0,0,1-4.45,1.29l-.6.06a1.47,1.47,0,0,1-.88-.14.93.93,0,0,1-.32-.91,2.72,2.72,0,0,1,.15-.61,8.93,8.93,0,0,1,1-2,13,13,0,0,0-.39,2.17c0,1-.2.5.72.32a26,26,0,0,0,3.89-1.83,30.61,30.61,0,0,0,6.75-5.2,36.37,36.37,0,0,0,5.23-6.78A16.88,16.88,0,0,0,121.9,74c.16-.65.15-1.17-.36-1.36A3.68,3.68,0,0,0,119.48,73Z" vector-effect="non-scaling-stroke"></path></g></g></g></svg>